<mxfile host="app.diagrams.net" modified="2024-04-09T17:44:36.799Z" agent="Mozilla/5.0 (Windows NT 10.0; Win64; x64) AppleWebKit/537.36 (KHTML, like Gecko) Chrome/123.0.0.0 Safari/537.36 Edg/123.0.0.0" etag="mdm29prjivWgkpvvVLc2" version="24.2.3" type="github">
  <diagram name="Page-1" id="j-Iv3c8-Z4eeYkZQpkJT">
    <mxGraphModel dx="1282" dy="535" grid="1" gridSize="10" guides="1" tooltips="1" connect="1" arrows="1" fold="1" page="1" pageScale="1" pageWidth="850" pageHeight="1100" math="0" shadow="0">
      <root>
        <mxCell id="0" />
        <mxCell id="1" parent="0" />
        <mxCell id="Acz3aPbxF6rcHiOYTj3H-1" value="" style="rounded=0;whiteSpace=wrap;html=1;" vertex="1" parent="1">
          <mxGeometry x="50" y="200" width="120" height="60" as="geometry" />
        </mxCell>
        <mxCell id="Acz3aPbxF6rcHiOYTj3H-2" value="" style="rounded=0;whiteSpace=wrap;html=1;" vertex="1" parent="1">
          <mxGeometry x="340" y="420" width="120" height="60" as="geometry" />
        </mxCell>
        <mxCell id="Acz3aPbxF6rcHiOYTj3H-3" value="" style="rounded=0;whiteSpace=wrap;html=1;" vertex="1" parent="1">
          <mxGeometry x="630" y="200" width="120" height="60" as="geometry" />
        </mxCell>
        <mxCell id="Acz3aPbxF6rcHiOYTj3H-4" value="" style="rounded=1;whiteSpace=wrap;html=1;" vertex="1" parent="1">
          <mxGeometry x="340" y="200" width="120" height="60" as="geometry" />
        </mxCell>
        <mxCell id="Acz3aPbxF6rcHiOYTj3H-5" value="" style="endArrow=classic;html=1;rounded=0;exitX=0;exitY=0.25;exitDx=0;exitDy=0;entryX=1;entryY=0.25;entryDx=0;entryDy=0;" edge="1" parent="1" source="Acz3aPbxF6rcHiOYTj3H-4" target="Acz3aPbxF6rcHiOYTj3H-1">
          <mxGeometry width="50" height="50" relative="1" as="geometry">
            <mxPoint x="120" y="280" as="sourcePoint" />
            <mxPoint x="170" y="230" as="targetPoint" />
          </mxGeometry>
        </mxCell>
        <mxCell id="Acz3aPbxF6rcHiOYTj3H-6" value="" style="endArrow=classic;html=1;rounded=0;exitX=1.014;exitY=0.874;exitDx=0;exitDy=0;exitPerimeter=0;" edge="1" parent="1" source="Acz3aPbxF6rcHiOYTj3H-1">
          <mxGeometry width="50" height="50" relative="1" as="geometry">
            <mxPoint x="290" y="300" as="sourcePoint" />
            <mxPoint x="340" y="250" as="targetPoint" />
          </mxGeometry>
        </mxCell>
        <mxCell id="Acz3aPbxF6rcHiOYTj3H-9" value="" style="endArrow=classic;html=1;rounded=0;entryX=0.022;entryY=0.085;entryDx=0;entryDy=0;entryPerimeter=0;exitX=0.986;exitY=0.125;exitDx=0;exitDy=0;exitPerimeter=0;" edge="1" parent="1" source="Acz3aPbxF6rcHiOYTj3H-1" target="Acz3aPbxF6rcHiOYTj3H-4">
          <mxGeometry width="50" height="50" relative="1" as="geometry">
            <mxPoint x="170" y="220" as="sourcePoint" />
            <mxPoint x="220" y="170" as="targetPoint" />
          </mxGeometry>
        </mxCell>
        <mxCell id="Acz3aPbxF6rcHiOYTj3H-10" value="" style="endArrow=classic;html=1;rounded=0;exitX=0;exitY=0.25;exitDx=0;exitDy=0;entryX=1;entryY=0.25;entryDx=0;entryDy=0;" edge="1" parent="1" source="Acz3aPbxF6rcHiOYTj3H-3" target="Acz3aPbxF6rcHiOYTj3H-4">
          <mxGeometry width="50" height="50" relative="1" as="geometry">
            <mxPoint x="530" y="190" as="sourcePoint" />
            <mxPoint x="580" y="140" as="targetPoint" />
          </mxGeometry>
        </mxCell>
        <mxCell id="Acz3aPbxF6rcHiOYTj3H-11" value="" style="endArrow=classic;html=1;rounded=0;exitX=1.003;exitY=0.664;exitDx=0;exitDy=0;exitPerimeter=0;" edge="1" parent="1" source="Acz3aPbxF6rcHiOYTj3H-1">
          <mxGeometry width="50" height="50" relative="1" as="geometry">
            <mxPoint x="290" y="290" as="sourcePoint" />
            <mxPoint x="340" y="240" as="targetPoint" />
          </mxGeometry>
        </mxCell>
        <mxCell id="Acz3aPbxF6rcHiOYTj3H-12" value="" style="endArrow=classic;html=1;rounded=0;exitX=1;exitY=0.75;exitDx=0;exitDy=0;entryX=0;entryY=0.75;entryDx=0;entryDy=0;" edge="1" parent="1" source="Acz3aPbxF6rcHiOYTj3H-4" target="Acz3aPbxF6rcHiOYTj3H-3">
          <mxGeometry width="50" height="50" relative="1" as="geometry">
            <mxPoint x="560" y="270" as="sourcePoint" />
            <mxPoint x="610" y="220" as="targetPoint" />
          </mxGeometry>
        </mxCell>
        <mxCell id="Acz3aPbxF6rcHiOYTj3H-14" value="" style="endArrow=classic;startArrow=classic;html=1;rounded=0;entryX=0.25;entryY=1;entryDx=0;entryDy=0;exitX=0.25;exitY=0;exitDx=0;exitDy=0;" edge="1" parent="1" source="Acz3aPbxF6rcHiOYTj3H-2" target="Acz3aPbxF6rcHiOYTj3H-4">
          <mxGeometry width="50" height="50" relative="1" as="geometry">
            <mxPoint x="310" y="390" as="sourcePoint" />
            <mxPoint x="360" y="340" as="targetPoint" />
          </mxGeometry>
        </mxCell>
        <mxCell id="Acz3aPbxF6rcHiOYTj3H-15" value="" style="endArrow=classic;startArrow=classic;html=1;rounded=0;exitX=0.5;exitY=0;exitDx=0;exitDy=0;" edge="1" parent="1" source="Acz3aPbxF6rcHiOYTj3H-2" target="Acz3aPbxF6rcHiOYTj3H-4">
          <mxGeometry width="50" height="50" relative="1" as="geometry">
            <mxPoint x="380" y="400" as="sourcePoint" />
            <mxPoint x="430" y="350" as="targetPoint" />
          </mxGeometry>
        </mxCell>
        <mxCell id="Acz3aPbxF6rcHiOYTj3H-16" value="" style="endArrow=classic;startArrow=classic;html=1;rounded=0;entryX=0.75;entryY=1;entryDx=0;entryDy=0;exitX=0.75;exitY=0;exitDx=0;exitDy=0;" edge="1" parent="1" source="Acz3aPbxF6rcHiOYTj3H-2" target="Acz3aPbxF6rcHiOYTj3H-4">
          <mxGeometry width="50" height="50" relative="1" as="geometry">
            <mxPoint x="430" y="400" as="sourcePoint" />
            <mxPoint x="480" y="350" as="targetPoint" />
          </mxGeometry>
        </mxCell>
        <mxCell id="Acz3aPbxF6rcHiOYTj3H-17" value="Author Email" style="text;html=1;align=center;verticalAlign=middle;whiteSpace=wrap;rounded=0;" vertex="1" parent="1">
          <mxGeometry x="190" y="180" width="80" height="30" as="geometry" />
        </mxCell>
        <mxCell id="Acz3aPbxF6rcHiOYTj3H-18" value="Verify Email" style="text;html=1;align=center;verticalAlign=middle;whiteSpace=wrap;rounded=0;" vertex="1" parent="1">
          <mxGeometry x="210" y="210" width="70" height="30" as="geometry" />
        </mxCell>
        <mxCell id="Acz3aPbxF6rcHiOYTj3H-19" value="Create Profile" style="text;html=1;align=center;verticalAlign=middle;whiteSpace=wrap;rounded=0;" vertex="1" parent="1">
          <mxGeometry x="210" y="240" width="80" height="10" as="geometry" />
        </mxCell>
        <mxCell id="Acz3aPbxF6rcHiOYTj3H-20" value="Submit Item" style="text;html=1;align=center;verticalAlign=middle;whiteSpace=wrap;rounded=0;" vertex="1" parent="1">
          <mxGeometry x="215" y="250" width="75" height="30" as="geometry" />
        </mxCell>
        <mxCell id="Acz3aPbxF6rcHiOYTj3H-21" value="Search/Browse Criteria" style="text;html=1;align=center;verticalAlign=middle;whiteSpace=wrap;rounded=0;" vertex="1" parent="1">
          <mxGeometry x="460" y="180" width="140" height="30" as="geometry" />
        </mxCell>
        <mxCell id="Acz3aPbxF6rcHiOYTj3H-22" value="Item Contents" style="text;html=1;align=center;verticalAlign=middle;whiteSpace=wrap;rounded=0;" vertex="1" parent="1">
          <mxGeometry x="490" y="240" width="110" height="30" as="geometry" />
        </mxCell>
        <mxCell id="Acz3aPbxF6rcHiOYTj3H-23" value="Manage Users" style="text;html=1;align=center;verticalAlign=middle;whiteSpace=wrap;rounded=0;" vertex="1" parent="1">
          <mxGeometry x="310" y="330" width="90" height="30" as="geometry" />
        </mxCell>
        <mxCell id="Acz3aPbxF6rcHiOYTj3H-24" value="Accept Items" style="text;html=1;align=center;verticalAlign=middle;whiteSpace=wrap;rounded=0;" vertex="1" parent="1">
          <mxGeometry x="360" y="280" width="80" height="30" as="geometry" />
        </mxCell>
        <mxCell id="Acz3aPbxF6rcHiOYTj3H-25" value="Commit Items Archival" style="text;html=1;align=center;verticalAlign=middle;whiteSpace=wrap;rounded=0;" vertex="1" parent="1">
          <mxGeometry x="400" y="350" width="130" height="30" as="geometry" />
        </mxCell>
        <mxCell id="Acz3aPbxF6rcHiOYTj3H-26" value="Administrator" style="text;html=1;align=center;verticalAlign=middle;whiteSpace=wrap;rounded=0;" vertex="1" parent="1">
          <mxGeometry x="370" y="435" width="60" height="30" as="geometry" />
        </mxCell>
        <mxCell id="Acz3aPbxF6rcHiOYTj3H-27" value="Gmail" style="text;html=1;align=center;verticalAlign=middle;whiteSpace=wrap;rounded=0;" vertex="1" parent="1">
          <mxGeometry x="370" y="220" width="60" height="30" as="geometry" />
        </mxCell>
        <mxCell id="Acz3aPbxF6rcHiOYTj3H-28" value="Author" style="text;html=1;align=center;verticalAlign=middle;whiteSpace=wrap;rounded=0;" vertex="1" parent="1">
          <mxGeometry x="70" y="220" width="60" height="30" as="geometry" />
        </mxCell>
        <mxCell id="Acz3aPbxF6rcHiOYTj3H-29" value="Viewer" style="text;html=1;align=center;verticalAlign=middle;whiteSpace=wrap;rounded=0;" vertex="1" parent="1">
          <mxGeometry x="660" y="210" width="60" height="30" as="geometry" />
        </mxCell>
      </root>
    </mxGraphModel>
  </diagram>
</mxfile>
